<?xml version="1.0" encoding="iso-8859-1"?>
<!-- Uploaded to: SVG Repo, www.svgrepo.com, Generator: SVG Repo Mixer Tools -->
<!DOCTYPE svg PUBLIC "-//W3C//DTD SVG 1.1//EN" "http://www.w3.org/Graphics/SVG/1.1/DTD/svg11.dtd">
<svg fill="#000000" version="1.1" id="Capa_1" xmlns="http://www.w3.org/2000/svg" xmlns:xlink="http://www.w3.org/1999/xlink" 
	 width="800px" height="800px" viewBox="0 0 612 612" xml:space="preserve">
<g>
	<g>
		<rect x="492.469" y="568.969" width="43.031" height="43.031"/>
		<rect y="76.5" width="43.031" height="43.031"/>
		<rect y="153" width="43.031" height="43.031"/>
		<rect y="229.5" width="43.031" height="43.031"/>
		<rect y="306" width="43.031" height="43.031"/>
		<rect y="382.5" width="43.031" height="43.031"/>
		<rect x="415.429" y="568.969" width="43.031" height="43.031"/>
		<rect x="339.469" y="568.969" width="43.031" height="43.031"/>
		<rect x="262.969" y="568.969" width="43.031" height="43.031"/>
		<rect x="186.469" y="568.969" width="43.031" height="43.031"/>
		<polygon points="0,0 0,43.031 568.969,43.031 568.969,612 612,612 612,38.25 612,0 573.75,0 		"/>
		<polygon points="26.307,485.024 126.995,585.713 315.266,396.867 214.559,296.141 		"/>
		<polygon points="239.072,272.259 339.761,372.947 366.731,345.402 266.024,244.681 		"/>
		<polygon points="0,508.404 0,612 103.595,612 		"/>
		<path d="M313.114,198.183l-25.192,25.14L388.63,324.063l25.173-25.192c27.885-27.817,27.885-72.89,0-100.688
			C386.023,170.365,340.927,170.365,313.114,198.183z"/>
	</g>
</g>
</svg>